# xmcd
#
# Track frame offsets:
#	150
#	15455
#	29574
#	44732
#	57182
#	70695
#	87075
#	100819
#	113295
#	128322
#	145130
#	162235
#	177367
#	193632
#	208142
#
# Disc length: 2954 seconds
#
# Revision: 2
# Processed by: cddbd v1.5.2PL0 Copyright (c) Steve Scherf et al.
# Submitted via: audiograbber 1.83.01
#
DISCID=c30b880f
DTITLE=Brown Kane - Kane Brown (Deluxe Edition)
DYEAR=2017
DGENRE=Country
TTITLE0=Hometown
TTITLE1=What Ifs
TTITLE2=Learning
TTITLE3=Thunder In the Rain
TTITLE4=Pull It Off
TTITLE5=Cold Spot
TTITLE6=Ain't No Stopping Us Now
TTITLE7=Comeback
TTITLE8=Rockstars
TTITLE9=Better Place
TTITLE10=Granddaddy's Chair
TTITLE11=Setting The Night On Fire
TTITLE12=What's Mine Is Yours
TTITLE13=Found You
TTITLE14=Heaven
EXTD=YEAR: 2017
EXTT0=
EXTT1=
EXTT2=
EXTT3=
EXTT4=
EXTT5=
EXTT6=
EXTT7=
EXTT8=
EXTT9=
EXTT10=
EXTT11=
EXTT12=
EXTT13=
EXTT14=
PLAYORDER=
